REM DIRINDEX 1\2,1\3,1\4,1\5
REM DIRNAME cjc044,folder01,folder02,folder03,folder04
TITLE ""
FILE "1800_099.mp3" MP3
  TRACK 01 AUDIO
    TITLE "2:cjc044_2725"
    INDEX 01 00:00:00
  TRACK 02 AUDIO
    TITLE "0:"
    INDEX 01 00:01:09
  TRACK 03 AUDIO
    TITLE "3:cjc044_2726"
    INDEX 01 00:01:66
  TRACK 04 AUDIO
    TITLE "0:"
    INDEX 01 00:03:25
  TRACK 05 AUDIO
    TITLE "4:cjc044_2727"
    INDEX 01 00:04:07
  TRACK 06 AUDIO
    TITLE "0:"
    INDEX 01 00:05:24
  TRACK 07 AUDIO
    TITLE "5:cjc044_2728"
    INDEX 01 00:05:73
  TRACK 08 AUDIO
    TITLE "0:"
    INDEX 01 00:09:24
  TRACK 09 AUDIO
    TITLE "2:cjc044_2729"
    INDEX 01 00:11:13
  TRACK 10 AUDIO
    TITLE "0:"
    INDEX 01 00:12:30
  TRACK 11 AUDIO
    TITLE "3:cjc044_2730"
    INDEX 01 00:13:16
  TRACK 12 AUDIO
    TITLE "0:"
    INDEX 01 00:14:19
  TRACK 13 AUDIO
    TITLE "4:cjc044_2731"
    INDEX 01 00:15:01
  TRACK 14 AUDIO
    TITLE "0:"
    INDEX 01 00:16:18
  TRACK 15 AUDIO
    TITLE "5:cjc044_2732"
    INDEX 01 00:16:71
  TRACK 16 AUDIO
    TITLE "0:"
    INDEX 01 00:20:41
  TRACK 17 AUDIO
    TITLE "2:cjc044_2733"
    INDEX 01 00:22:29
  TRACK 18 AUDIO
    TITLE "0:"
    INDEX 01 00:23:30
  TRACK 19 AUDIO
    TITLE "3:cjc044_2734"
    INDEX 01 00:24:18
  TRACK 20 AUDIO
    TITLE "0:"
    INDEX 01 00:25:27
  TRACK 21 AUDIO
    TITLE "4:cjc044_2735"
    INDEX 01 00:26:09
  TRACK 22 AUDIO
    TITLE "0:"
    INDEX 01 00:27:12
  TRACK 23 AUDIO
    TITLE "5:cjc044_2736"
    INDEX 01 00:27:61
  TRACK 24 AUDIO
    TITLE "0:"
    INDEX 01 00:31:24
  TRACK 25 AUDIO
    TITLE "2:cjc044_2737"
    INDEX 01 00:33:07
  TRACK 26 AUDIO
    TITLE "0:"
    INDEX 01 00:34:57
  TRACK 27 AUDIO
    TITLE "3:cjc044_2738"
    INDEX 01 00:35:43
  TRACK 28 AUDIO
    TITLE "0:"
    INDEX 01 00:37:03
  TRACK 29 AUDIO
    TITLE "4:cjc044_2739"
    INDEX 01 00:37:63
  TRACK 30 AUDIO
    TITLE "0:"
    INDEX 01 00:39:39
  TRACK 31 AUDIO
    TITLE "5:cjc044_2740"
    INDEX 01 00:40:26
  TRACK 32 AUDIO
    TITLE "0:"
    INDEX 01 00:44:38
  TRACK 33 AUDIO
    TITLE "2:cjc044_2741"
    INDEX 01 00:46:19
  TRACK 34 AUDIO
    TITLE "0:"
    INDEX 01 00:47:38
  TRACK 35 AUDIO
    TITLE "3:cjc044_2742"
    INDEX 01 00:48:20
  TRACK 36 AUDIO
    TITLE "0:"
    INDEX 01 00:50:42
  TRACK 37 AUDIO
    TITLE "4:cjc044_2743"
    INDEX 01 00:51:26
  TRACK 38 AUDIO
    TITLE "0:"
    INDEX 01 00:52:43
  TRACK 39 AUDIO
    TITLE "5:cjc044_2744"
    INDEX 01 00:53:17
  TRACK 40 AUDIO
    TITLE "0:"
    INDEX 01 00:56:51
  TRACK 41 AUDIO
    TITLE "2:cjc044_2745"
    INDEX 01 00:58:36
  TRACK 42 AUDIO
    TITLE "0:"
    INDEX 01 00:59:57
  TRACK 43 AUDIO
    TITLE "3:cjc044_2746"
    INDEX 01 01:00:37
  TRACK 44 AUDIO
    TITLE "0:"
    INDEX 01 01:01:54
  TRACK 45 AUDIO
    TITLE "4:cjc044_2747"
    INDEX 01 01:02:36
  TRACK 46 AUDIO
    TITLE "0:"
    INDEX 01 01:03:57
  TRACK 47 AUDIO
    TITLE "5:cjc044_2748"
    INDEX 01 01:04:39
  TRACK 48 AUDIO
    TITLE "0:"
    INDEX 01 01:08:15
  TRACK 49 AUDIO
    TITLE "2:cjc044_2749"
    INDEX 01 01:10:00
  TRACK 50 AUDIO
    TITLE "0:"
    INDEX 01 01:11:21
  TRACK 51 AUDIO
    TITLE "3:cjc044_2750"
    INDEX 01 01:12:03
  TRACK 52 AUDIO
    TITLE "0:"
    INDEX 01 01:13:16
  TRACK 53 AUDIO
    TITLE "4:cjc044_2751"
    INDEX 01 01:13:71
  TRACK 54 AUDIO
    TITLE "0:"
    INDEX 01 01:15:17
  TRACK 55 AUDIO
    TITLE "5:cjc044_2752"
    INDEX 01 01:15:74
  TRACK 56 AUDIO
    TITLE "0:"
    INDEX 01 01:19:42
  TRACK 57 AUDIO
    TITLE "2:cjc044_2753"
    INDEX 01 01:21:23
  TRACK 58 AUDIO
    TITLE "0:"
    INDEX 01 01:22:27
  TRACK 59 AUDIO
    TITLE "3:cjc044_2754"
    INDEX 01 01:23:18
  TRACK 60 AUDIO
    TITLE "0:"
    INDEX 01 01:24:08
  TRACK 61 AUDIO
    TITLE "4:cjc044_2755"
    INDEX 01 01:24:69
  TRACK 62 AUDIO
    TITLE "0:"
    INDEX 01 01:26:03
  TRACK 63 AUDIO
    TITLE "5:cjc044_2756"
    INDEX 01 01:26:52
  TRACK 64 AUDIO
    TITLE "0:"
    INDEX 01 01:29:56
